<?xml version="1.0" encoding="UTF-8"?>
<!DOCTYPE svg PUBLIC "-//W3C//DTD SVG 1.1//EN" "http://www.w3.org/Graphics/SVG/1.1/DTD/svg11.dtd">
<!-- Creator: CorelDRAW -->
<svg xmlns="http://www.w3.org/2000/svg" xml:space="preserve" width="447px" height="447px" version="1.1" style="shape-rendering:geometricPrecision; text-rendering:geometricPrecision; image-rendering:optimizeQuality; fill-rule:evenodd; clip-rule:evenodd"
viewBox="0 0 447 447"
 xmlns:xlink="http://www.w3.org/1999/xlink"
 xmlns:xodm="http://www.corel.com/coreldraw/odm/2003">
 <defs>
  <style type="text/css">
   <![CDATA[
    .fil5 {fill:#231F20;fill-rule:nonzero}
    .fil6 {fill:#2D3091;fill-rule:nonzero}
    .fil0 {fill:#4EB748;fill-rule:nonzero}
    .fil3 {fill:#50C5DF;fill-rule:nonzero}
    .fil4 {fill:#9BAAB3;fill-rule:nonzero}
    .fil1 {fill:#EC1D24;fill-rule:nonzero}
    .fil2 {fill:white;fill-rule:nonzero}
   ]]>
  </style>
 </defs>
 <g id="Layer_x0020_1">
  <metadata id="CorelCorpID_0Corel-Layer"/>
  <g id="_3137412154480">
   <path class="fil0" d="M-0.5 223.98c74.5,-74.49 148.98,-149 223.49,-223.48 74.53,74.48 149.05,148.97 223.51,223.52 -74.49,74.49 -148.98,148.99 -223.49,223.48 -74.53,-74.47 -149.04,-148.98 -223.51,-223.52z"/>
   <path class="fil1" d="M212.46 61.56c2.15,-10.86 9,-20.16 17.49,-27.01 -4.03,10.86 -7.97,22.8 -4.66,34.38 1.69,6.81 7.97,10.97 10.48,17.37 3.71,7.91 2.54,16.97 0.18,25.08 -0.69,3.28 -2.33,7 -0.53,10.18 2.3,3.05 6.69,1.8 9.57,0.4 3.67,-2.05 3.6,-6.88 2.88,-10.5 -2.2,-11.04 -6.94,-21.83 -5.98,-33.32 0.39,-5.43 2.26,-10.78 5.51,-15.17 -0.64,4.09 -1.57,8.23 -0.96,12.4 1.36,12.08 8.45,22.31 13.72,32.95 2.9,5.99 5.78,12.91 3.55,19.59 -2.22,6.17 -8.01,10.04 -13.54,13 -4.12,2.01 -8.42,3.6 -12.76,5.04 -3.13,0.93 -5.58,3.19 -8.5,4.56 -2.19,1.04 -4.56,1.59 -6.89,2.16 -1.95,-0.52 -3.96,-0.52 -5.92,-0.07 -7.61,-1.25 -13.5,-6.37 -19.62,-10.6 -5.98,-4.33 -11.73,-9.96 -13.47,-17.39 -1.79,-7.48 1.2,-15.01 4.79,-21.47 3.56,-6.65 8.41,-12.67 10.93,-19.85 1.09,-2.82 0.71,-5.87 0.1,-8.74 3.99,3.77 7.47,8.42 8.29,13.99 1.67,9.86 -2.88,19.15 -5.42,28.43 -0.69,3.05 -1.48,6.95 1.03,9.4 4.48,3.87 12.64,3.11 15.38,-2.49 2.17,-5.15 0.63,-10.88 -0.43,-16.12 -3.61,-15.05 -8.56,-30.62 -5.22,-46.2zm-15.55 63.8c-0.33,3.95 1.87,7.45 4.67,10.02 3.71,3.42 7.91,6.36 12.19,8.99 3.12,2.54 7.27,3.46 11.24,3.31 0.25,-0.13 0.76,-0.38 1.01,-0.51 2.86,-0.18 5.48,-1.56 7.6,-3.43 2.17,-1.14 3.71,-3.14 5.49,-4.76 -1.18,-1.36 -2.39,-2.7 -3.61,-4.01 -2.41,3.34 -5.34,7.3 -9.87,7.39 -5.21,-0.02 -8.56,-4.46 -12.21,-7.46 -6.75,-0.41 -11.6,-5.53 -16.51,-9.54z"/>
   <g>
    <g>
     <path class="fil2" d="M130.81 132.3c2.2,2.63 4.62,5.22 7.82,6.61 8.71,4.08 18.56,3.83 27.94,4.21 14.37,16.31 28.52,32.84 43.11,48.97 0.51,18.65 0.95,37.3 1.51,55.95 -11.98,-0.35 -23.87,1.37 -35.76,2.54 -9.62,0.65 -19.54,1.83 -28.98,-0.78 -2.84,-1 -6.1,-2.21 -7.75,-4.84 -2.71,-37.54 -5.12,-75.11 -7.89,-112.66zm17.1 42.88c-0.51,3.06 1.29,7.14 -1.31,9.45 0.04,0.45 0.14,1.36 0.19,1.82 1.89,3.5 0.93,7.55 1.05,11.34 3.56,-0.06 7.14,0.12 10.7,-0.04 4.04,-0.59 6.55,-4.51 7.03,-8.31 0.6,-4.28 0.43,-9.39 -2.97,-12.53 -4.3,-2.91 -9.83,-1.34 -14.69,-1.73zm22.08 0.04c0.05,7.52 0.12,15.04 -0.04,22.56 1.45,0.01 2.9,0.02 4.35,0.04 -0.02,-3.41 -0.02,-6.81 0,-10.21 2.79,0 5.57,0 8.37,-0.03 0.05,3.41 0.03,6.82 0.02,10.22 1.5,0 3,-0.01 4.5,-0.01 -0.24,-7.53 -0.07,-15.06 -0.1,-22.59 -1.46,-0.03 -2.93,-0.08 -4.38,-0.13 -0.01,2.92 -0.01,5.83 -0.02,8.75 -2.81,-0.01 -5.61,-0.01 -8.43,-0.05 0.04,-2.9 0.04,-5.8 0.03,-8.69 -1.44,0.04 -2.87,0.1 -4.3,0.14zm-18.43 40.21c-4.54,1.28 -5.77,7.8 -2.67,11.07 2.93,1.95 6.64,1.94 9.81,3.33 2.08,0.67 1.65,4 -0.34,4.49 -2.24,0.81 -5.77,0.9 -6.83,-1.71 -0.55,-2.29 -3.1,-1.39 -4.78,-1.69 0.25,2.28 0.87,4.77 2.92,6.11 3.02,1.97 7.04,2.03 10.38,0.88 4.14,-1.41 5.49,-7.32 2.83,-10.6 -3,-3 -7.89,-2.13 -11.24,-4.44 -2.22,-5.29 7.86,-5.66 7.79,-0.62 1.44,0 2.89,-0.01 4.34,-0.02 -0.55,-1.93 -0.94,-4.13 -2.59,-5.46 -2.63,-2.21 -6.46,-2.2 -9.62,-1.34zm17.05 -0.02c-0.12,7.56 0,15.11 -0.07,22.66 1.45,-0.05 2.9,-0.08 4.36,-0.13 -0.1,-2.68 -0.11,-5.36 -0.09,-8.04 2.61,-0.06 5.29,0.25 7.82,-0.5 5.42,-2.03 5.63,-11.59 0.01,-13.5 -3.95,-0.84 -8.03,-0.2 -12.03,-0.49z"/>
    </g>
    <path class="fil2" d="M190.92 160.24c19.38,0.01 38.76,0 58.14,0.01 -2,2.15 -4.09,4.22 -6.21,6.25 0,-0.51 -0.01,-1.55 -0.02,-2.07 -15.29,-0.11 -30.57,-0.01 -45.86,-0.05 0.01,0.53 0.03,1.61 0.04,2.14 -2.06,-2.06 -4.11,-4.14 -6.09,-6.28z"/>
    <path class="fil2" d="M202.89 172.1c11.28,0 22.56,-0.01 33.84,0 -0.36,0.52 -1.11,1.56 -1.48,2.07 -10.37,-0.02 -20.75,0.06 -31.13,-0.05 -0.3,-0.51 -0.92,-1.51 -1.23,-2.02z"/>
    <path class="fil2" d="M254.77 175.26c1.53,-0.07 3.05,-0.14 4.58,-0.21 0.14,2.91 0.1,5.83 0,8.74 3.18,-2.37 5.42,-5.7 8.06,-8.61 1.9,-0.02 3.8,-0.03 5.71,-0.01 -2.68,3.29 -5.79,6.18 -8.58,9.37 3.1,4.39 6.11,8.83 9.14,13.26 -1.95,-0.01 -3.9,-0.03 -5.85,-0.09 -2.01,-3.05 -3.87,-6.21 -6.03,-9.15 -1.12,-0.75 -1.61,0.65 -2.1,1.41 -0.59,2.56 -0.18,5.22 -0.2,7.81 -1.6,-0.03 -3.19,-0.07 -4.77,-0.12 0.18,-7.46 0.1,-14.93 0.04,-22.4z"/>
    <path class="fil2" d="M274.85 175.24c5.83,-0.18 11.66,-0.02 17.49,-0.11 0.04,1.35 0.07,2.69 0.13,4.05 -2.2,0.06 -4.39,0.08 -6.58,0.1 0,6.17 -0.01,12.34 0.01,18.5 -1.49,0 -2.97,0 -4.45,0 0.04,-6.16 -0.04,-12.34 0.06,-18.51 -2.2,0 -4.39,-0.02 -6.59,-0.03 -0.02,-1.34 -0.05,-2.67 -0.07,-4z"/>
    <path class="fil2" d="M152.24 179c2.9,0.05 7,-0.66 8.4,2.65 1.18,3.36 1.25,7.49 -0.71,10.56 -1.7,2.56 -5.05,1.66 -7.63,1.87 -0.04,-2.09 -0.05,-4.17 -0.06,-6.25 1.62,0 3.23,0.02 4.85,0.04 -0.01,-1.29 0,-2.59 0.01,-3.87 -1.63,0 -3.24,0 -4.85,0.01 -0.01,-1.67 -0.01,-3.35 -0.01,-5.01z"/>
    <path class="fil2" d="M216.04 181.32c2.9,0.01 5.8,0.01 8.71,-0.02 0,3.02 -0.04,6.05 -0.04,9.07 -1.5,0.04 -2.99,0.09 -4.48,0.15 0.05,58.58 0.02,117.16 0.02,175.74 -1.41,-0.01 -2.81,-0.01 -4.21,0 -0.03,-61.65 -0.01,-123.3 0,-184.94z"/>
    <path class="fil2" d="M252.82 215.43c1.62,-0.01 3.25,-0.03 4.88,-0.03 1.42,5.36 2.83,10.72 4.23,16.09 2.58,-5.02 3.18,-10.82 4.97,-16.15 1.55,0.06 3.12,0.13 4.68,0.21 -2.46,7.12 -4.59,14.36 -6.95,21.51 -0.54,1.95 -3.18,0.65 -4.67,0.98 -2.28,-7.57 -4.69,-15.1 -7.14,-22.61z"/>
    <path class="fil2" d="M275.21 215.38c1.49,0 2.98,0.01 4.47,0.02 0.04,6.16 0.02,12.33 0.01,18.49 3.49,0.03 6.98,0.03 10.47,-0.05 0.03,1.41 0.08,2.83 0.11,4.24 -5.03,0.02 -10.06,0.04 -15.09,-0.01 0,-7.56 -0.08,-15.13 0.03,-22.69z"/>
    <path class="fil2" d="M230.76 250.68c0.22,-11.02 0.92,-22 1.19,-33.01 9.81,11.46 20.07,22.52 29.66,34.16 4.62,0.84 9.31,0.32 13.97,0.23 -3.41,1.33 -7.19,-0.12 -10.74,0.51 -9.31,0.09 -18.61,-0.47 -27.87,-1.31 -2.07,-0.26 -4.14,-0.41 -6.21,-0.58z"/>
    <path class="fil2" d="M172.82 219.24c2.37,0.19 5.47,-0.6 7.21,1.47 0.22,1.61 0.63,3.75 -0.94,4.83 -2,0.77 -4.19,0.5 -6.28,0.58 0,-2.3 0,-4.58 0.01,-6.88z"/>
    <path class="fil2" d="M210.85 396.1c-0.32,-4.93 4.8,-9.19 9.59,-7.95 3.78,0.6 6.2,4.24 6.47,7.88 -0.43,2.95 -1.96,5.92 -4.86,7.1 -4.85,2.55 -11.24,-1.67 -11.2,-7.03z"/>
   </g>
   <g>
    <path class="fil3" d="M298.14 143.07c6.11,-1.25 11.25,-4.97 15.62,-9.24 -2.72,27.15 -5.16,54.33 -7.77,81.49 -0.94,10.95 -2.26,21.87 -2.96,32.84 -8.96,2.27 -18.22,3.35 -27.45,3.9 -4.65,0.09 -9.35,0.61 -13.97,-0.23 -9.59,-11.64 -19.85,-22.7 -29.66,-34.16 0.55,-11.94 0.83,-23.89 1.43,-35.83 2.09,0.01 4.17,0.03 6.25,0.05 0,-2.56 0,-5.13 0.01,-7.69 -1.47,-0.01 -2.93,-0.03 -4.39,-0.03 0.37,-0.51 1.12,-1.55 1.48,-2.07 2.03,0.01 4.06,0.02 6.08,0.04 0,-1.88 0.03,-3.76 0.04,-5.64 2.12,-2.03 4.21,-4.1 6.21,-6.25 2.1,-0.01 4.18,-0.02 6.28,-0.02 0,-2.13 0,-4.26 0,-6.39 -23.31,-0.01 -46.61,0.01 -69.93,-0.01 0,2.14 0,4.27 0,6.4 1.84,0 3.67,0.01 5.51,0.01 1.98,2.14 4.03,4.22 6.09,6.28 0.04,1.88 0.04,3.75 0.04,5.62 1.95,-0.02 3.89,-0.03 5.84,-0.04 0.31,0.51 0.93,1.51 1.23,2.02 -0.57,0.02 -1.7,0.04 -2.27,0.05 -0.17,2.65 -0.12,5.3 -0.08,7.96 2.59,-0.02 5.17,0 7.76,0.06 0.05,3.29 0.1,6.6 0.15,9.9 -14.59,-16.13 -28.74,-32.66 -43.11,-48.97 9.94,-0.96 19.94,-0.78 29.91,-1.12 6.12,4.23 12.01,9.35 19.62,10.6 1.79,1.36 4.1,1.41 5.92,0.07 2.33,-0.57 4.7,-1.12 6.89,-2.16 2.92,-1.37 5.37,-3.63 8.5,-4.56 4.34,-1.44 8.64,-3.03 12.76,-5.04 4.34,0.59 8.73,0.65 13.08,1.15 11.56,1.06 23.35,3.53 34.89,1.01zm-43.37 32.19c0.06,7.47 0.14,14.94 -0.04,22.4 1.58,0.05 3.17,0.09 4.77,0.12 0.02,-2.59 -0.39,-5.25 0.2,-7.81 0.49,-0.76 0.98,-2.16 2.1,-1.41 2.16,2.94 4.02,6.1 6.03,9.15 1.95,0.06 3.9,0.08 5.85,0.09 -3.03,-4.43 -6.04,-8.87 -9.14,-13.26 2.79,-3.19 5.9,-6.08 8.58,-9.37 -1.91,-0.02 -3.81,-0.01 -5.71,0.01 -2.64,2.91 -4.88,6.24 -8.06,8.61 0.1,-2.91 0.14,-5.83 0,-8.74 -1.53,0.07 -3.05,0.14 -4.58,0.21zm20.08 -0.02c0.02,1.33 0.05,2.66 0.08,4 2.19,0.01 4.38,0.02 6.58,0.03 -0.1,6.17 -0.02,12.35 -0.06,18.51 1.48,0 2.96,0 4.45,0 -0.02,-6.16 -0.01,-12.33 -0.01,-18.5 2.19,-0.02 4.38,-0.04 6.58,-0.1 -0.06,-1.36 -0.09,-2.7 -0.13,-4.05 -5.83,0.09 -11.66,-0.07 -17.49,0.11zm-22.03 40.19c2.45,7.51 4.86,15.04 7.14,22.61 1.49,-0.33 4.13,0.97 4.67,-0.98 2.36,-7.15 4.49,-14.39 6.95,-21.51 -1.56,-0.08 -3.13,-0.15 -4.68,-0.21 -1.79,5.33 -2.39,11.13 -4.97,16.15 -1.4,-5.37 -2.81,-10.73 -4.23,-16.09 -1.63,0 -3.26,0.02 -4.88,0.03zm22.39 -0.05c-0.11,7.56 -0.03,15.13 -0.03,22.69 5.03,0.05 10.06,0.03 15.09,0.01 -0.03,-1.41 -0.08,-2.83 -0.11,-4.24 -3.49,0.08 -6.98,0.08 -10.47,0.05 0.01,-6.16 0.03,-12.33 -0.01,-18.49 -1.49,-0.01 -2.98,-0.02 -4.47,-0.02z"/>
   </g>
   <g>
    <path class="fil4" d="M216.1 152.6c1.96,-0.45 3.97,-0.45 5.92,0.07 -1.82,1.34 -4.13,1.29 -5.92,-0.07z"/>
   </g>
   <g>
    <path class="fil5" d="M185.41 153.83c23.32,0.02 46.62,0 69.93,0.01 0,2.13 0,4.26 0,6.39 -2.1,0 -4.18,0.01 -6.28,0.02 -19.38,-0.01 -38.76,0 -58.14,-0.01 -1.84,0 -3.67,-0.01 -5.51,-0.01 0,-2.13 0,-4.26 0,-6.4z"/>
    <path class="fil5" d="M196.97 164.38c15.29,0.04 30.57,-0.06 45.86,0.05 0.01,0.52 0.02,1.56 0.02,2.07 -0.01,1.88 -0.04,3.76 -0.04,5.65 -2.02,-0.03 -4.05,-0.04 -6.08,-0.05 -11.28,-0.01 -22.56,0 -33.84,0 -1.95,0.01 -3.89,0.02 -5.84,0.05 0,-1.88 0,-3.75 -0.04,-5.63 -0.01,-0.53 -0.03,-1.61 -0.04,-2.14z"/>
    <g>
     <path class="fil5" d="M201.77 182.13c-0.04,-2.66 -0.09,-5.31 0.08,-7.96 0.57,-0.01 1.7,-0.03 2.27,-0.05 10.38,0.11 20.76,0.03 31.13,0.05 1.46,0 2.92,0.02 4.39,0.03 -0.01,2.56 -0.01,5.13 -0.01,7.69 -2.08,-0.02 -4.16,-0.04 -6.25,-0.05 -0.6,11.94 -0.88,23.89 -1.43,35.83 -0.27,11.01 -0.97,21.99 -1.19,33.01 -1.22,28.96 -2.43,57.93 -3.31,86.91 12.12,-2.32 23.29,-9.34 30.16,-19.66 6.67,-9.88 9.22,-22.42 6.85,-34.12 -2.32,-12.3 -10.12,-23.33 -20.73,-29.92 -2.07,-1.28 -4.38,-2.16 -6.76,-2.63 9.26,0.84 18.56,1.4 27.87,1.31 2.09,3.44 4.56,6.61 6.94,9.86 4.75,-2.09 9.55,-4.05 14.35,-6.01 3.07,8.91 6.5,17.74 8.9,26.84 -4.61,0.96 -9.02,2.65 -13.55,3.89 -0.14,3.41 -0.13,6.83 -0.05,10.25 5.17,1.18 10.31,2.47 15.51,3.52 -2.53,9.17 -5.49,18.23 -8.39,27.3 -4.44,-2.3 -8.69,-4.98 -13.22,-7.08 -2.96,3.22 -5.63,6.71 -8.33,10.15 4.02,3.03 7.83,6.34 11.9,9.32 -6.11,6.75 -13.43,12.31 -19.6,19.02 -4,-3.84 -7.17,-8.44 -10.99,-12.44 -4.87,1.81 -9.32,4.69 -13.99,6.99 0.65,4.05 1.22,8.12 1.86,12.18 -3.38,-0.15 -6.78,-0.28 -10.15,0.15 -0.03,5.27 -0.31,10.53 -0.4,15.8 -0.66,0.02 -1.98,0.07 -2.63,0.09 4.31,1.94 8.21,5.34 9.27,10.14 2.34,8.05 -4.33,17.16 -12.78,17.13 -8.2,0.79 -15.63,-7.14 -14.4,-15.26 0.32,-5.72 4.82,-9.99 9.79,-12.15 -0.25,-5.33 -0.44,-10.66 -0.62,-15.99 -2.18,-0.02 -4.36,-0.04 -6.55,-0.08 0.14,-4.63 0.18,-9.27 0,-13.89 -4.43,-1.35 -8.8,-2.83 -13.23,-4.17 -3.09,4.47 -6.46,8.72 -9.44,13.26 -7.9,-6.11 -15.22,-12.96 -23.09,-19.14 4.12,-3.63 8.84,-6.5 13.17,-9.88 -2.73,-4.17 -5.54,-8.3 -8.26,-12.47 -5.23,2.79 -10.17,6.04 -15.3,9 -2.12,-8.99 -4.91,-17.8 -7.08,-26.78 4.36,-1.87 8.66,-3.89 13.01,-5.79 0.21,-3.44 0.17,-6.88 0.11,-10.32 -4.36,-1.03 -8.71,-2.08 -13.11,-2.93 2.09,-9.92 4.27,-19.81 6.64,-29.67 5.89,1.34 11.58,3.58 17.54,4.55 2.51,-2.21 4.64,-4.81 6.76,-7.38 11.89,-1.17 23.78,-2.89 35.76,-2.54 -0.56,-18.65 -1.01,-37.3 -1.51,-55.95 -0.05,-3.3 -0.1,-6.61 -0.15,-9.9 -2.59,-0.06 -5.17,-0.08 -7.76,-0.06zm14.27 -0.81c-0.01,61.64 -0.03,123.29 0,184.94 1.4,-0.01 2.8,-0.01 4.21,0 0,-58.58 0.03,-117.16 -0.02,-175.74 1.49,-0.06 2.98,-0.11 4.48,-0.15 0,-3.02 0.04,-6.05 0.04,-9.07 -2.91,0.03 -5.81,0.03 -8.71,0.02zm-40.91 102.89c-2.49,12.43 0.81,25.81 8.46,35.87 7.16,9.52 18.17,15.93 29.95,17.59 -0.66,-29.82 -1.58,-59.63 -2.33,-89.45 -18.06,2.67 -32.9,18.22 -36.08,35.99zm35.72 111.89c-0.04,5.36 6.35,9.58 11.2,7.03 2.9,-1.18 4.43,-4.15 4.86,-7.1 -0.27,-3.64 -2.69,-7.28 -6.47,-7.88 -4.79,-1.24 -9.91,3.02 -9.59,7.95z"/>
    </g>
   </g>
   <g>
    <g>
     <path class="fil6" d="M147.91 175.18c4.86,0.39 10.39,-1.18 14.69,1.73 3.4,3.14 3.57,8.25 2.97,12.53 -0.48,3.8 -2.99,7.72 -7.03,8.31 -3.56,0.16 -7.14,-0.02 -10.7,0.04 -0.11,-3.79 0.84,-7.84 -1.05,-11.34 -0.05,-0.46 -0.15,-1.37 -0.19,-1.82 2.6,-2.31 0.8,-6.39 1.31,-9.45zm4.33 3.82c0,1.66 0,3.34 0.01,5.01 1.61,-0.01 3.22,-0.01 4.85,-0.01 -0.01,1.28 -0.02,2.58 -0.01,3.87 -1.62,-0.02 -3.23,-0.04 -4.85,-0.04 0.01,2.08 0.02,4.16 0.06,6.25 2.58,-0.21 5.93,0.69 7.63,-1.87 1.96,-3.07 1.89,-7.2 0.71,-10.56 -1.4,-3.31 -5.5,-2.6 -8.4,-2.65z"/>
    </g>
    <path class="fil6" d="M169.99 175.22c1.43,-0.04 2.86,-0.1 4.3,-0.14 0.01,2.89 0.01,5.79 -0.03,8.69 2.82,0.04 5.62,0.04 8.43,0.05 0.01,-2.92 0.01,-5.83 0.02,-8.75 1.45,0.05 2.92,0.1 4.38,0.13 0.03,7.53 -0.14,15.06 0.1,22.59 -1.5,0 -3,0.01 -4.49,0.01 0,-3.41 0.02,-6.81 -0.03,-10.22 -2.8,0.03 -5.58,0.03 -8.37,0.03 -0.02,3.4 -0.02,6.8 0,10.21 -1.45,-0.02 -2.9,-0.03 -4.35,-0.04 0.16,-7.52 0.09,-15.04 0.04,-22.56z"/>
    <path class="fil6" d="M151.56 215.43c3.16,-0.86 6.99,-0.87 9.62,1.34 1.65,1.33 2.04,3.53 2.59,5.46 -1.45,0.01 -2.9,0.02 -4.34,0.02 0.07,-5.04 -10.01,-4.67 -7.79,0.62 3.35,2.31 8.24,1.44 11.24,4.44 2.66,3.28 1.31,9.19 -2.83,10.6 -3.34,1.15 -7.36,1.09 -10.39,-0.88 -2.04,-1.34 -2.66,-3.83 -2.91,-6.11 1.68,0.3 4.23,-0.6 4.78,1.69 1.06,2.61 4.59,2.52 6.83,1.71 1.99,-0.49 2.42,-3.82 0.34,-4.49 -3.17,-1.39 -6.88,-1.38 -9.81,-3.33 -3.1,-3.27 -1.87,-9.79 2.67,-11.07z"/>
    <g>
     <path class="fil6" d="M168.61 215.41c4,0.29 8.08,-0.35 12.03,0.49 5.62,1.91 5.41,11.47 -0.01,13.5 -2.53,0.75 -5.21,0.44 -7.82,0.5 -0.02,2.68 -0.01,5.36 0.09,8.04 -1.46,0.05 -2.91,0.08 -4.36,0.13 0.07,-7.55 -0.05,-15.1 0.07,-22.66zm4.21 3.83c-0.01,2.3 -0.01,4.58 -0.01,6.88 2.09,-0.08 4.28,0.19 6.28,-0.58 1.57,-1.08 1.16,-3.22 0.94,-4.83 -1.74,-2.07 -4.84,-1.28 -7.21,-1.47z"/>
    </g>
   </g>
  </g>
 </g>
</svg>
